<!-- Generated by IcoMoon.io -->
<svg version="1.1" xmlns="http://www.w3.org/2000/svg" width="16" height="16" viewBox="0 0 16 16">
<path d="M15.5 7h-1.587c-0.422-2.51-2.403-4.487-4.913-4.91v-1.59c0-0.277-0.223-0.5-0.5-0.5h-1c-0.277 0-0.5 0.224-0.5 0.5v1.59c-2.511 0.422-4.491 2.4-4.913 4.91h-1.587c-0.277 0-0.5 0.223-0.5 0.5v1c0 0.277 0.224 0.5 0.5 0.5h1.587c0.422 2.51 2.403 4.488 4.913 4.91v1.59c0 0.277 0.223 0.5 0.5 0.5h1c0.277 0 0.5-0.223 0.5-0.5v-1.59c2.511-0.422 4.491-2.401 4.913-4.91h1.587c0.277 0 0.5-0.223 0.5-0.5v-1c0-0.277-0.223-0.5-0.5-0.5zM11.873 7h-2.873v-2.869c1.405 0.362 2.511 1.466 2.873 2.869zM7 4.131v2.869h-2.873c0.362-1.404 1.469-2.506 2.873-2.869zM4.127 9h2.873v2.869c-1.405-0.361-2.511-1.464-2.873-2.869zM9 11.868v-2.868h2.873c-0.363 1.404-1.469 2.507-2.873 2.869z"></path>
</svg>
